<svg width="24" height="24" viewBox="0 0 24 24" fill="none" xmlns="http://www.w3.org/2000/svg">
<path d="M24 14.2726C24.0037 12.6158 22.6798 11.2744 21.0558 11.2744C20.6507 11.2744 20.2644 11.358 19.9081 11.5062C19.6681 8.81588 17.4402 6.70312 14.721 6.70312C14.0534 6.70312 13.4083 6.82852 12.8345 7.06032C12.6057 7.14392 12.542 7.22752 12.542 7.40991V16.8983C12.542 17.0883 12.6882 17.2251 12.8645 17.2479H21.052C22.676 17.2479 24 15.9179 24 14.2726Z" fill="#00CDFF"/>
<path d="M12.2757 7.72531C12.2607 7.61131 12.2007 7.50491 12.1069 7.45171C12.0656 7.42131 12.0019 7.39851 11.9494 7.39851C11.8668 7.39851 11.7918 7.42891 11.7393 7.47071C11.6681 7.53531 11.6231 7.63031 11.6156 7.72531V7.7557L11.4918 14.4702L11.5555 15.7052L11.6193 16.9097C11.6306 17.0883 11.7768 17.2365 11.9531 17.2365C12.1294 17.2365 12.2757 17.0883 12.2757 16.9097L12.4219 14.4702L12.2757 7.72531Z" fill="#00CDFF"/>
<path d="M5.93717 9.34407C6.04219 9.34407 6.13595 9.42767 6.13595 9.54547L6.33473 14.4854L6.13595 17.0617C6.13595 17.1795 6.04219 17.2631 5.93717 17.2631C5.8209 17.2631 5.73839 17.1795 5.72714 17.0617L5.56211 14.4854L5.72714 9.54547C5.73839 9.42767 5.8209 9.34407 5.93717 9.34407Z" fill="#00CDFF"/>
<path d="M5.15706 10.4499C5.15706 10.3435 5.07454 10.2599 4.98078 10.2599C4.87576 10.2599 4.8045 10.3435 4.79325 10.4499L4.60572 14.4626L4.79325 17.0579C4.8045 17.1643 4.87576 17.2479 4.98078 17.2479C5.07454 17.2479 5.15706 17.1643 5.15706 17.0579L5.37459 14.4626L5.15706 10.4499Z" fill="#00CDFF"/>
<path d="M4.39569 14.4626L4.17815 11.9926C4.1669 11.909 4.09564 11.833 4.01313 11.833C3.92687 11.833 3.8556 11.909 3.8556 11.9926L3.64557 14.4626L3.8556 17.0579C3.8556 17.1529 3.93062 17.2251 4.01313 17.2251C4.09564 17.2251 4.1669 17.1529 4.17815 17.0579L4.39569 14.4626Z" fill="#00CDFF"/>
<path d="M0.363807 13.1098C0.352555 13.0566 0.32255 13.0148 0.270042 13.0148C0.217534 13.0148 0.187529 13.0566 0.176277 13.1098L0 14.4626L0.176277 15.7926C0.187529 15.8458 0.217534 15.8876 0.270042 15.8876C0.32255 15.8876 0.352555 15.8458 0.363807 15.7926L0.573839 14.4626L0.363807 13.1098Z" fill="#00CDFF"/>
<path d="M1.15518 12.1826C1.20769 12.1826 1.24894 12.2244 1.2602 12.2776L1.53024 14.4626L1.2602 16.6057C1.24894 16.6589 1.20769 16.7007 1.15518 16.7007C1.10267 16.7007 1.06141 16.6589 1.06141 16.5943L0.821377 14.4626L1.06141 12.2776C1.06141 12.2244 1.10267 12.1826 1.15518 12.1826Z" fill="#00CDFF"/>
<path d="M2.22035 11.8748C2.22035 11.8026 2.16784 11.7494 2.10408 11.7494C2.04032 11.7494 1.98781 11.8026 1.98031 11.8748L1.76278 14.4626L1.98031 16.9629C1.99156 17.0275 2.04407 17.0807 2.10408 17.0807C2.16784 17.0807 2.22035 17.0275 2.22035 16.9629L2.47914 14.4626L2.22035 11.8748Z" fill="#00CDFF"/>
<path d="M3.05297 11.6658C3.12423 11.6658 3.18799 11.719 3.19924 11.8026L3.43928 14.4626L3.19924 17.0389C3.18799 17.1225 3.12423 17.1757 3.05297 17.1757C2.98171 17.1757 2.91795 17.1225 2.91795 17.0389L2.70042 14.4626L2.91795 11.8026C2.91795 11.719 2.98171 11.6658 3.05297 11.6658Z" fill="#00CDFF"/>
<path d="M11.1055 8.0331C11.188 8.0863 11.2405 8.1813 11.2517 8.28769L11.3755 14.474L11.2592 16.7007L11.248 16.9553C11.248 17.0427 11.218 17.1149 11.1542 17.1681C11.1017 17.2213 11.0267 17.2631 10.9442 17.2631C10.8504 17.2631 10.7679 17.2175 10.7042 17.1453C10.6629 17.0921 10.6404 17.0313 10.6404 16.9667V16.9553C10.5241 14.474 10.5241 14.4626 10.5241 14.4626L10.6292 8.35229L10.6404 8.28769C10.6404 8.1813 10.6929 8.0863 10.7754 8.0331C10.8242 8.0027 10.8804 7.9799 10.9404 7.9799C11.0005 7.9799 11.053 8.0027 11.1055 8.0331Z" fill="#00CDFF"/>
<path d="M7.15612 9.11988C7.14862 8.99448 7.05485 8.88808 6.92733 8.88808C6.81106 8.88808 6.7098 8.99448 6.7098 9.11988L6.54477 14.4626L6.7098 17.0161C6.72105 17.1415 6.81481 17.2365 6.92733 17.2365C7.0511 17.2365 7.14487 17.1415 7.15612 17.0161L7.34365 14.4626L7.15612 9.11988Z" fill="#00CDFF"/>
<path d="M9.9278 8.98308C10.0853 8.98308 10.1978 9.10848 10.2091 9.27948L10.3554 14.474L10.2091 16.9667C10.2091 17.1263 10.0853 17.2517 9.9278 17.2517C9.77027 17.2517 9.6465 17.1263 9.63525 16.9667L9.51148 14.474L9.63525 9.27948C9.6465 9.10848 9.77027 8.98308 9.9278 8.98308Z" fill="#00CDFF"/>
<path d="M8.16877 8.94128C8.15752 8.80448 8.0525 8.68669 7.91748 8.68669C7.79371 8.68669 7.67745 8.80448 7.67745 8.94128L7.53117 14.4626L7.67745 17.0047C7.6887 17.1415 7.79371 17.2479 7.91748 17.2479C8.0525 17.2479 8.15752 17.1415 8.16877 17.0047L8.3338 14.4626L8.16877 8.94128Z" fill="#00CDFF"/>
<path d="M8.91889 8.81588C9.06517 8.81588 9.17768 8.92988 9.17768 9.07808L9.33521 14.4626L9.17768 16.9857C9.17768 17.1301 9.06142 17.2479 8.91889 17.2479C8.77637 17.2479 8.67136 17.1339 8.6601 16.9857L8.51383 14.4626L8.6601 9.07808C8.6601 8.93368 8.77262 8.81588 8.91889 8.81588Z" fill="#00CDFF"/>
</svg>
