<svg width="300" height="249" viewBox="0 0 300 249" fill="none" xmlns="http://www.w3.org/2000/svg">
<path d="M70 169C70 124.817 105.817 89 150 89C194.183 89 230 124.817 230 169V249H70V169Z" fill="#FF646E"/>
<path d="M221.327 249L180.862 200.022C180.862 200.022 168.45 222.891 150.751 222.891C130.915 222.891 120.223 200.022 120.223 200.022L79.7576 249H221.327Z" fill="#00CDFF"/>
<path d="M174.585 211.608L150.751 224.728L126.579 211.608V151.465H174.585V211.608Z" fill="#E6C4AF"/>
<path d="M174.583 193.58C174.583 193.58 166.665 203.329 150.02 203.329C133.376 203.329 126.616 193.58 126.616 193.58C126.616 193.58 123.347 166.212 150.046 166.212C176.745 166.212 174.583 193.58 174.583 193.58Z" fill="#DAB5A9"/>
<path d="M126.63 196.808L120.222 200.036C120.222 200.036 123.765 229.267 150.711 229.267C176.056 229.267 180.862 200.036 180.862 200.036L174.454 196.808C174.454 196.808 170.989 221.736 150.711 221.736C130.433 221.736 126.63 196.808 126.63 196.808Z" fill="#00A6ED"/>
<path d="M116.862 126.982C116.862 132.388 113.098 136.783 108.461 136.783C103.825 136.783 100.061 132.401 100.061 126.982C100.061 121.564 103.825 117.182 108.461 117.182C113.098 117.182 116.862 121.564 116.862 126.982Z" fill="#E6C4AF"/>
<path d="M200.268 126.982C200.268 132.388 196.504 136.783 191.868 136.783C187.231 136.783 183.467 132.401 183.467 126.982C183.467 121.564 187.231 117.182 191.868 117.182C196.504 117.182 200.268 121.564 200.268 126.982Z" fill="#E6C4AF"/>
<path d="M196.359 126.982C196.359 129.803 193.885 132.099 190.824 132.099C187.764 132.099 185.289 129.803 185.289 126.982C185.289 124.161 187.764 121.865 190.824 121.865C193.885 121.865 196.359 124.161 196.359 126.982Z" fill="#DAB5A9"/>
<path d="M114.896 126.982C114.896 129.803 112.422 132.099 109.361 132.099C106.3 132.099 103.826 129.803 103.826 126.982C103.826 124.161 106.3 121.865 109.361 121.865C112.422 121.865 114.896 124.161 114.896 126.982Z" fill="#DAB5A9"/>
<path d="M194.198 123.479C194.198 155.715 168.242 175.369 150.047 175.369C134.002 175.369 105.896 153.078 105.896 123.479C105.896 84.5777 123.335 68.3612 150.047 68.3612C176.759 68.3612 194.198 84.5777 194.198 123.479Z" fill="#E6C4AF"/>
<path d="M128.805 148.184C127.346 151.556 122.163 152.527 118.816 151.045C115.468 149.562 112.668 145.075 114.127 141.703C115.586 138.331 120.769 137.36 124.116 138.843C127.463 140.312 130.264 144.813 128.805 148.184Z" fill="#E5BAA7"/>
<path d="M171.081 148.184C172.54 151.556 177.723 152.527 181.07 151.045C184.417 149.562 187.217 145.075 185.759 141.703C184.3 138.331 179.117 137.36 175.769 138.843C172.422 140.312 169.622 144.813 171.081 148.184Z" fill="#E5BAA7"/>
<path d="M196.177 118.585L193.845 117.457C193.845 117.457 193.806 119.779 194.184 123.492C194.145 127.153 193.559 129.554 193.207 128.714C192.243 126.431 191.227 117.378 189.222 113.98C185.145 107.105 186.187 99.2462 186.187 99.2462C140.851 95.3364 125.275 75.0657 125.275 75.0657C124.376 88.9731 110.219 99.4693 110.219 99.4693C110.219 99.4693 111.027 123.624 107.901 131.509C107.263 133.136 105.556 132.099 105.908 124.28C106.585 120.265 105.882 117.667 105.882 117.667L104.137 118.585C101.193 105.806 99.0836 69.9095 119.87 65.7635C154.214 30.9819 203.014 73.9636 196.164 118.585H196.177Z" fill="#292929"/>
<path d="M140.383 153.669H159.046" stroke="#C88281" stroke-miterlimit="10"/>
<path d="M132.57 102.356H166.862" stroke="#DAB5A9" stroke-miterlimit="10"/>
<path d="M170.249 148.631C165.273 149.444 165.86 142.372 149.684 143.383C132.297 144.472 134.485 149.628 129.184 148.631C107.408 144.485 107.578 128.032 105.911 124.28C105.911 182.192 125.512 196.664 150.049 196.664C174.586 196.664 194.199 182.192 194.199 123.715C192.155 126.103 195.372 144.498 170.249 148.631ZM149.723 164.559C141.531 164.559 138.093 160.937 136.673 158.3C135.97 156.988 136.751 155.374 138.21 155.086L148.694 152.96L149.723 151.452L150.752 152.96L161.236 155.086C162.682 155.374 163.476 157.001 162.773 158.3C161.353 160.937 157.915 164.559 149.723 164.559Z" fill="#292929"/>
<path d="M145.75 157.565H153.681L152.327 166.212H147.117L145.75 157.565Z" fill="#292929"/>
<path d="M149.943 111.815C146.908 111.815 139.329 146.781 143.757 145.482C148.393 144.13 146.531 147.266 149.943 147.266C153.355 147.266 151.962 144.301 156.129 145.482C160.922 146.833 152.978 111.815 149.943 111.815Z" fill="#D9A49A"/>
<path d="M179.117 129.803C179.117 133.91 175.809 137.243 171.732 137.243C167.656 137.243 164.348 133.91 164.348 129.803H179.117Z" fill="#DAB5A9"/>
<path d="M135.838 129.803C135.838 133.91 131.853 137.243 128.454 137.243C125.055 137.243 121.069 133.91 121.069 129.803H135.838Z" fill="#DAB5A9"/>
<path d="M186.137 119.136L161.417 120.265L160.922 114.951H163.657V116.696C163.657 116.696 174.754 113.888 178.479 114.387C182.203 114.885 186.137 119.136 186.137 119.136Z" fill="#292929"/>
<path d="M113.698 117.824L138.417 118.953L138.912 113.639H136.177V115.384C136.177 115.384 125.081 112.576 121.356 113.075C117.631 113.573 113.698 117.824 113.698 117.824Z" fill="#292929"/>
<path d="M142.909 112.537H140.461V120.265H142.909V112.537Z" fill="#292929"/>
<path d="M145.749 114.124H144.46V119.648H145.749V114.124Z" fill="#292929"/>
<path d="M159.268 113.337H156.819V120.658H159.268V113.337Z" fill="#292929"/>
<path d="M155.53 114.124H154.228V120.265H155.53V114.124Z" fill="#292929"/>
<path d="M135.642 126.602C135.642 130.708 132.334 134.041 128.258 134.041C124.181 134.041 120.873 130.708 120.873 126.602C120.873 122.495 124.181 119.163 128.258 119.163C132.334 119.163 135.642 122.495 135.642 126.602Z" fill="#FFE884"/>
<path d="M179.117 126.602C179.117 130.708 175.809 134.041 171.732 134.041C167.656 134.041 164.348 130.708 164.348 126.602C164.348 122.495 167.643 119.163 171.732 119.163C175.822 119.163 179.117 122.495 179.117 126.602Z" fill="#FFE884"/>
<path d="M119.948 67.0886C119.948 51.5281 154.331 39.9955 163.721 58.5868" stroke="#292929" stroke-width="0.5" stroke-miterlimit="10"/>
<path d="M95.516 104.494C86.5035 88.1465 105.349 58.6917 122.632 67.0887" stroke="#292929" stroke-width="0.5" stroke-miterlimit="10"/>
<path d="M123.244 68.3747C126.578 41.4915 186.137 45.3357 188.82 84.8668" stroke="#292929" stroke-width="0.5" stroke-miterlimit="10"/>
<path d="M185.004 96.6224C197.728 98.1181 208.603 115.962 204.787 126.904" stroke="#292929" stroke-width="0.5" stroke-miterlimit="10"/>
<path d="M125.276 75.0658C130.694 82.728 118.516 104.494 107.902 104.494" stroke="#292929" stroke-width="0.5" stroke-miterlimit="10"/>
<path d="M107.212 98.9313C90.2419 127.507 88.9656 151.924 104.594 150.638" stroke="#292929" stroke-width="0.5" stroke-miterlimit="10"/>
<path d="M188.819 149.103C195.279 158.025 196.828 173.218 187.555 182.192" stroke="#292929" stroke-width="0.5" stroke-miterlimit="10"/>
<path d="M118.751 155.951C108.475 163.837 108.475 184.999 118.751 187.243" stroke="#292929" stroke-width="0.5" stroke-miterlimit="10"/>
<path d="M128.258 126.602C128.258 126.602 130.186 126.182 130.29 128.058C130.459 130.918 126.5 131.81 124.533 129.042C122.567 126.274 124.664 122.902 126.878 122.233C130.342 121.196 135.63 124.817 132.322 130.446" stroke="#FF646E" stroke-linecap="round" stroke-linejoin="round"/>
<path d="M171.731 126.602C171.731 126.602 173.658 126.182 173.763 128.058C173.932 130.918 169.973 131.81 168.006 129.042C166.039 126.274 168.136 122.902 170.35 122.233C173.815 121.196 179.102 124.817 175.794 130.446" stroke="#FF646E" stroke-linecap="round" stroke-linejoin="round"/>
<path d="M150.582 108.496C146.036 108.496 142.377 103.681 141.595 102.579C141.504 102.447 141.491 102.264 141.582 102.132C142.286 101.017 145.568 96.2283 150.582 96.2283C155.596 96.2283 158.878 101.017 159.581 102.132C159.672 102.277 159.659 102.447 159.568 102.579C158.787 103.681 155.127 108.496 150.582 108.496Z" fill="white"/>
<path d="M150.581 105.426C152.264 105.426 153.629 104.051 153.629 102.356C153.629 100.66 152.264 99.2857 150.581 99.2857C148.898 99.2857 147.533 100.66 147.533 102.356C147.533 104.051 148.898 105.426 150.581 105.426Z" fill="#292929"/>
<path d="M262.011 134.023L300 137.104L273.326 141.561L277.644 149.031L239.655 145.951L266.329 141.494L262.011 134.023Z" fill="#FFE884"/>
<path d="M247.848 77.4085L285.345 70.5219L260.717 81.7515L266.808 87.8468L229.31 94.7334L253.939 83.5038L247.848 77.4085Z" fill="#FFE884"/>
<path d="M191.264 24.3757L218.103 4.80493L202.905 23.0055L209.877 25.5779L183.039 45.1394L198.235 26.9481L191.264 24.3757Z" fill="#FFE884"/>
<path d="M108.734 24.3757L81.895 4.80493L97.0931 23.0055L90.1213 25.5779L116.959 45.1394L101.763 26.9481L108.734 24.3757Z" fill="#FFE884"/>
<path d="M52.1505 77.4085L14.6526 70.5219L39.2809 81.7515L33.1897 87.8468L70.6877 94.7334L46.0593 83.5038L52.1505 77.4085Z" fill="#FFE884"/>
<path d="M37.9892 134.023L0 137.104L26.6737 141.561L22.3557 149.031L60.3449 145.951L33.6712 141.494L37.9892 134.023Z" fill="#FFE884"/>
</svg>
