<svg width="256" height="270" viewBox="0 0 256 270" fill="none" xmlns="http://www.w3.org/2000/svg">
<path d="M203.966 270L160.232 217.454C160.232 217.454 146.818 241.989 127.688 241.989C106.251 241.989 94.6944 217.454 94.6944 217.454L50.9604 270H203.966Z" fill="#00C4FA"/>
<path d="M153.448 229.884L127.689 243.959L101.564 229.884V165.359H153.448V229.884Z" fill="#E6C4AF"/>
<path d="M153.446 210.543C153.446 210.543 144.888 221.002 126.899 221.002C108.91 221.002 101.604 210.543 101.604 210.543C101.604 210.543 98.0714 181.181 126.927 181.181C155.783 181.181 153.446 210.543 153.446 210.543Z" fill="#DAB3A9"/>
<path d="M101.619 214.006L94.6934 217.469C94.6934 217.469 98.522 248.83 127.645 248.83C155.037 248.83 160.231 217.469 160.231 217.469L153.306 214.006C153.306 214.006 149.561 240.75 127.645 240.75C105.729 240.75 101.619 214.006 101.619 214.006Z" fill="#00A6ED"/>
<path d="M91.0623 139.094C91.0623 144.893 86.9943 149.608 81.9833 149.608C76.9722 149.608 72.9043 144.907 72.9043 139.094C72.9043 133.28 76.9722 128.579 81.9833 128.579C86.9943 128.579 91.0623 133.28 91.0623 139.094Z" fill="#E6C4AF"/>
<path d="M181.205 139.094C181.205 144.893 177.137 149.608 172.126 149.608C167.115 149.608 163.047 144.907 163.047 139.094C163.047 133.28 167.115 128.579 172.126 128.579C177.137 128.579 181.205 133.28 181.205 139.094Z" fill="#E6C4AF"/>
<path d="M176.981 139.094C176.981 142.12 174.307 144.583 170.999 144.583C167.691 144.583 165.017 142.12 165.017 139.094C165.017 136.067 167.691 133.604 170.999 133.604C174.307 133.604 176.981 136.067 176.981 139.094Z" fill="#DAB3A9"/>
<path d="M88.9372 139.094C88.9372 142.12 86.2628 144.583 82.9549 144.583C79.6471 144.583 76.9727 142.12 76.9727 139.094C76.9727 136.067 79.6471 133.604 82.9549 133.604C86.2628 133.604 88.9372 136.067 88.9372 139.094Z" fill="#DAB3A9"/>
<path d="M174.645 135.335C174.645 169.92 146.592 191.006 126.928 191.006C109.586 191.006 79.2104 167.091 79.2104 135.335C79.2104 93.6001 98.0582 76.2023 126.928 76.2023C155.798 76.2023 174.645 93.6001 174.645 135.335Z" fill="#E6C4AF"/>
<path d="M103.97 161.84C102.393 165.458 96.7909 166.5 93.1734 164.909C89.5558 163.318 86.5295 158.504 88.106 154.887C89.6825 151.269 95.2848 150.228 98.9023 151.818C102.52 153.395 105.546 158.223 103.97 161.84Z" fill="#E5BAA7"/>
<path d="M149.66 161.84C151.237 165.458 156.839 166.5 160.456 164.909C164.074 163.318 167.1 158.504 165.524 154.887C163.947 151.269 158.345 150.228 154.728 151.818C151.11 153.395 148.084 158.223 149.66 161.84Z" fill="#E5BAA7"/>
<path d="M176.784 130.085L174.265 128.874C174.265 128.874 174.223 131.366 174.631 135.349C174.589 139.277 173.955 141.852 173.575 140.952C172.534 138.502 171.436 128.79 169.268 125.144C164.862 117.769 165.988 109.337 165.988 109.337C116.99 105.142 100.155 83.395 100.155 83.395C99.1837 98.3155 83.8831 109.576 83.8831 109.576C83.8831 109.576 84.7559 135.49 81.3776 143.95C80.6879 145.695 78.8439 144.583 79.224 136.194C79.9559 131.887 79.1958 129.1 79.1958 129.1L77.3097 130.085C74.1285 116.375 71.8482 77.8632 94.3134 73.4152C131.432 36.0998 184.174 82.2127 176.77 130.085H176.784Z" fill="#231F20"/>
<path d="M116.483 167.724H136.654" stroke="#C88281" stroke-width="1.08" stroke-miterlimit="10"/>
<path d="M108.038 112.673H145.1" stroke="#DAB3A9" stroke-width="0.5" stroke-miterlimit="10"/>
<path d="M148.761 162.319C143.384 163.192 144.017 155.605 126.535 156.689C107.743 157.857 110.108 163.389 104.379 162.319C80.8443 157.871 81.0273 140.22 79.2256 136.194C79.2256 198.325 100.41 213.851 126.929 213.851C153.448 213.851 174.646 198.325 174.646 135.589C172.437 138.151 175.913 157.885 148.761 162.319ZM126.577 179.407C117.723 179.407 114.007 175.522 112.473 172.693C111.713 171.285 112.557 169.554 114.134 169.244L125.465 166.964L126.577 165.345L127.689 166.964L139.02 169.244C140.583 169.554 141.441 171.3 140.681 172.693C139.147 175.522 135.431 179.407 126.577 179.407Z" fill="#231F20"/>
<path d="M122.284 171.905H130.856L129.392 181.181H123.762L122.284 171.905Z" fill="#231F20"/>
<path d="M126.816 122.822C123.536 122.822 115.344 160.334 120.13 158.941C125.141 157.491 123.128 160.855 126.816 160.855C130.504 160.855 128.997 157.674 133.502 158.941C138.682 160.391 130.095 122.822 126.816 122.822Z" fill="#D9A49A"/>
<path d="M158.346 142.12C158.346 146.526 154.771 150.101 150.365 150.101C145.96 150.101 142.384 146.526 142.384 142.12H158.346Z" fill="#DAB3A9"/>
<path d="M111.572 142.12C111.572 146.526 107.265 150.101 103.591 150.101C99.9171 150.101 95.6099 146.526 95.6099 142.12H111.572Z" fill="#DAB3A9"/>
<path d="M165.933 130.676L139.217 131.887L138.682 126.186H141.638V128.058C141.638 128.058 153.63 125.046 157.656 125.581C161.682 126.116 165.933 130.676 165.933 130.676Z" fill="#231F20"/>
<path d="M87.6416 129.269L114.358 130.479L114.893 124.778H111.937V126.651C111.937 126.651 99.944 123.638 95.9183 124.173C91.8925 124.708 87.6416 129.269 87.6416 129.269Z" fill="#231F20"/>
<path d="M119.214 123.596H116.568V131.887H119.214V123.596Z" fill="#231F20"/>
<path d="M122.283 125.299H120.889V131.225H122.283V125.299Z" fill="#231F20"/>
<path d="M136.894 124.455H134.248V132.309H136.894V124.455Z" fill="#231F20"/>
<path d="M132.855 125.299H131.447V131.887H132.855V125.299Z" fill="#231F20"/>
<path d="M111.36 138.686C111.36 143.091 107.785 146.667 103.379 146.667C98.9732 146.667 95.3979 143.091 95.3979 138.686C95.3979 134.28 98.9732 130.704 103.379 130.704C107.785 130.704 111.36 134.28 111.36 138.686Z" fill="#FFE884"/>
<path d="M158.346 138.686C158.346 143.091 154.771 146.667 150.365 146.667C145.96 146.667 142.384 143.091 142.384 138.686C142.384 134.28 145.946 130.704 150.365 130.704C154.785 130.704 158.346 134.28 158.346 138.686Z" fill="#FFE884"/>
<path d="M94.3989 74.8369C94.3989 58.1428 131.559 45.7701 141.708 65.7157" stroke="#231F20" stroke-width="0.5" stroke-miterlimit="10"/>
<path d="M67.9921 114.967C58.2515 97.4288 78.6194 65.8282 97.2982 74.8369" stroke="#231F20" stroke-width="0.5" stroke-miterlimit="10"/>
<path d="M97.9609 76.2165C101.564 47.3749 165.934 51.4991 168.833 93.91" stroke="#231F20" stroke-width="0.5" stroke-miterlimit="10"/>
<path d="M164.709 106.522C178.461 108.127 190.215 127.27 186.09 139.009" stroke="#231F20" stroke-width="0.5" stroke-miterlimit="10"/>
<path d="M100.155 83.3951C106.011 91.6155 92.8498 114.968 81.3779 114.968" stroke="#231F20" stroke-width="0.5" stroke-miterlimit="10"/>
<path d="M80.6328 108.999C62.2918 139.657 60.9123 165.852 77.8035 164.472" stroke="#231F20" stroke-width="0.5" stroke-miterlimit="10"/>
<path d="M168.832 162.826C175.814 172.397 177.489 188.697 167.467 198.325" stroke="#231F20" stroke-width="0.5" stroke-miterlimit="10"/>
<path d="M93.1043 170.173C81.9984 178.633 81.9984 201.338 93.1043 203.744" stroke="#231F20" stroke-width="0.5" stroke-miterlimit="10"/>
<path d="M103.379 138.685C103.379 138.685 105.462 138.235 105.575 140.248C105.758 143.316 101.479 144.274 99.3534 141.304C97.2279 138.334 99.4942 134.716 101.887 133.998C105.631 132.886 111.346 136.771 107.771 142.81" stroke="#FF6F6F" stroke-width="0.75" stroke-linecap="round" stroke-linejoin="round"/>
<path d="M150.364 138.685C150.364 138.685 152.447 138.235 152.56 140.248C152.743 143.316 148.464 144.274 146.338 141.304C144.213 138.334 146.479 134.716 148.872 133.998C152.616 132.886 158.331 136.771 154.756 142.81" stroke="#FF6F6F" stroke-width="0.75" stroke-linecap="round" stroke-linejoin="round"/>
<path d="M127.505 119.261C122.592 119.261 118.637 114.095 117.792 112.912C117.694 112.772 117.68 112.575 117.778 112.434C118.538 111.237 122.085 106.1 127.505 106.1C132.924 106.1 136.471 111.237 137.231 112.434C137.33 112.589 137.316 112.772 137.217 112.912C136.373 114.095 132.417 119.261 127.505 119.261Z" fill="white"/>
<path d="M127.505 115.967C129.324 115.967 130.799 114.492 130.799 112.673C130.799 110.854 129.324 109.379 127.505 109.379C125.686 109.379 124.211 110.854 124.211 112.673C124.211 114.492 125.686 115.967 127.505 115.967Z" fill="#231F20"/>
<path d="M161.719 31.7686L193.112 7.62939e-06L177.005 27.2888L186.955 29.0385L155.562 60.7947L171.669 33.5184L161.719 31.7686Z" fill="#FFE884"/>
<path d="M206.038 72.6315L255.696 63.4768L223.081 78.4049L231.147 86.5076L181.49 95.6623L214.105 80.7342L206.038 72.6315Z" fill="#FFE884"/>
<path d="M49.6572 72.6315L0 63.4768L32.6144 78.4049L24.5481 86.5076L74.2053 95.6623L41.5909 80.7342L49.6572 72.6315Z" fill="#FFE884"/>
<path d="M93.9755 31.7686L62.5825 0L78.6895 27.2887L68.7392 29.0385L100.132 60.7947L84.0253 33.5184L93.9755 31.7686Z" fill="#FFE884"/>
</svg>
