<svg width="128" height="128" viewBox="0 0 128 128" fill="none" xmlns="http://www.w3.org/2000/svg">
<path d="M52.952 21.4537H45.0348V39.5976H32.4214V47.511H45.0348V103.868C42.6566 104.56 40.2785 104.891 37.9304 104.891C29.381 104.891 21.3735 100.408 16.5268 92.8857L15.8043 91.7724L10.8071 98.362L11.1985 98.9337C17.4299 107.599 27.5447 112.865 38.2615 112.865C40.5193 112.865 42.8071 112.624 45.0649 112.143V119.455C42.8372 119.846 40.5795 120.026 38.3518 120.026C27.7855 120.026 17.3095 115.814 9.72342 108.231C8.51929 107.028 7.40546 105.764 6.38194 104.44L5.71966 103.598L0 109.284L0.541863 109.946C1.23424 110.819 1.95673 111.631 2.70931 112.474C11.6199 122.433 24.8354 127.97 38.1712 127.97C42.9276 127.97 47.7441 127.278 52.35 125.803L53.0122 125.593V109.345C57.3772 107.178 61.0499 104.079 64.0301 100.107C67.0104 104.079 70.683 107.178 75.0179 109.345V125.593L75.6801 125.803C80.3161 127.278 85.1025 128 89.8589 128C103.195 128 116.38 122.433 125.321 112.474C126.073 111.661 126.796 110.819 127.458 109.976L128 109.315L122.25 103.628L121.588 104.47C120.564 105.794 119.451 107.058 118.246 108.261C110.66 115.874 100.184 120.056 89.6181 120.056C87.3603 120.056 85.1326 119.876 82.905 119.485V112.173C85.1627 112.654 87.4506 112.895 89.7084 112.895C100.395 112.895 110.54 107.63 116.771 98.9638L117.163 98.3921L112.135 91.8025L111.413 92.9459C106.536 100.498 98.5588 104.952 90.0094 104.952C87.6613 104.952 85.2832 104.621 82.905 103.929V47.511H95.5183V39.5976H82.905V21.4537H74.9878V100.047C71.9774 97.8806 69.6595 95.1424 67.9436 91.622V23.4095C72.6397 21.7847 76.0715 17.3315 76.0715 12.0658C76.0414 5.38599 70.6228 0 63.9699 0C57.2869 0 51.8984 5.38599 51.8984 12.0658C51.8984 17.3315 55.3001 21.7847 60.0263 23.4095V91.6521C58.3104 95.1725 55.9925 97.9107 52.9821 100.077V21.4537H52.952ZM63.9699 16.2482C61.6519 16.2482 59.7855 14.3827 59.7855 12.0658C59.7855 9.74894 61.6519 7.8834 63.9699 7.8834C66.2879 7.8834 68.1543 9.74894 68.1543 12.0658C68.1543 14.3827 66.2879 16.2482 63.9699 16.2482Z" fill="white"/>
</svg>
