<?xml version="1.0" encoding="utf-8"?>
<!-- Generator: Adobe Illustrator 26.5.0, SVG Export Plug-In . SVG Version: 6.00 Build 0)  -->
<svg version="1.1" id="Layer_1" xmlns="http://www.w3.org/2000/svg" xmlns:xlink="http://www.w3.org/1999/xlink" x="0px" y="0px"
	 viewBox="0 0 256 270" style="enable-background:new 0 0 256 270;" xml:space="preserve">
<style type="text/css">
	.st0{fill:#00C4FA;}
	.st1{fill:#E6C4AF;}
	.st2{fill:#DAB3A9;}
	.st3{fill:#00A6ED;}
	.st4{fill:#E5BAA7;}
	.st5{fill:#231F20;}
	.st6{fill:none;stroke:#C88281;stroke-width:1.08;stroke-miterlimit:10;}
	.st7{fill:none;stroke:#DAB3A9;stroke-width:0.5;stroke-miterlimit:10;}
	.st8{fill:#D9A49A;}
	.st9{fill:#FFE884;}
	.st10{fill:none;stroke:#231F20;stroke-width:0.5;stroke-miterlimit:10;}
	.st11{fill:none;stroke:#FF6F6F;stroke-width:0.75;stroke-linecap:round;stroke-linejoin:round;}
	.st12{fill:#FFFFFF;}
</style>
<path class="st0" d="M204,270l-43.7-52.5c0,0-13.4,24.5-32.5,24.5c-21.4,0-33-24.5-33-24.5L51,270H204z"/>
<path class="st1" d="M153.4,229.9L127.7,244l-26.1-14.1v-64.5h51.9V229.9z"/>
<path class="st2" d="M153.4,210.5c0,0-8.6,10.5-26.5,10.5s-25.3-10.5-25.3-10.5s-3.5-29.4,25.3-29.4
	C155.8,181.2,153.4,210.5,153.4,210.5z"/>
<path class="st3" d="M101.6,214l-6.9,3.5c0,0,3.8,31.4,33,31.4c27.4,0,32.6-31.4,32.6-31.4l-6.9-3.5c0,0-3.7,26.7-25.7,26.7
	S101.6,214,101.6,214z"/>
<path class="st1" d="M91.1,139.1c0,5.8-4.1,10.5-9.1,10.5c-5,0-9.1-4.7-9.1-10.5c0-5.8,4.1-10.5,9.1-10.5
	C87,128.6,91.1,133.3,91.1,139.1z"/>
<path class="st1" d="M181.2,139.1c0,5.8-4.1,10.5-9.1,10.5c-5,0-9.1-4.7-9.1-10.5c0-5.8,4.1-10.5,9.1-10.5
	C177.1,128.6,181.2,133.3,181.2,139.1z"/>
<path class="st2" d="M177,139.1c0,3-2.7,5.5-6,5.5c-3.3,0-6-2.5-6-5.5c0-3,2.7-5.5,6-5.5C174.3,133.6,177,136.1,177,139.1z"/>
<path class="st2" d="M88.9,139.1c0,3-2.7,5.5-6,5.5c-3.3,0-6-2.5-6-5.5c0-3,2.7-5.5,6-5.5C86.3,133.6,88.9,136.1,88.9,139.1z"/>
<path class="st1" d="M174.6,135.3c0,34.6-28.1,55.7-47.7,55.7c-17.3,0-47.7-23.9-47.7-55.7c0-41.7,18.8-59.1,47.7-59.1
	C155.8,76.2,174.6,93.6,174.6,135.3z"/>
<path class="st4" d="M104,161.8c-1.6,3.6-7.2,4.7-10.8,3.1c-3.6-1.6-6.6-6.4-5.1-10c1.6-3.6,7.2-4.7,10.8-3.1
	C102.5,153.4,105.5,158.2,104,161.8z"/>
<path class="st4" d="M149.7,161.8c1.6,3.6,7.2,4.7,10.8,3.1c3.6-1.6,6.6-6.4,5.1-10c-1.6-3.6-7.2-4.7-10.8-3.1
	C151.1,153.4,148.1,158.2,149.7,161.8z"/>
<path class="st5" d="M176.8,130.1l-2.5-1.2c0,0,0,2.5,0.4,6.5c0,3.9-0.7,6.5-1.1,5.6c-1-2.4-2.1-12.2-4.3-15.8
	c-4.4-7.4-3.3-15.8-3.3-15.8c-49-4.2-65.8-25.9-65.8-25.9c-1,14.9-16.3,26.2-16.3,26.2s0.9,25.9-2.5,34.4c-0.7,1.7-2.5,0.6-2.2-7.8
	c0.7-4.3,0-7.1,0-7.1l-1.9,1c-3.2-13.7-5.5-52.2,17-56.7C131.4,36.1,184.2,82.2,176.8,130.1L176.8,130.1z"/>
<path class="st6" d="M116.5,167.7h20.2"/>
<path class="st7" d="M108,112.7h37.1"/>
<path class="st5" d="M148.8,162.3c-5.4,0.9-4.7-6.7-22.2-5.6c-18.8,1.2-16.4,6.7-22.2,5.6c-23.5-4.4-23.4-22.1-25.2-26.1
	c0,62.1,21.2,77.7,47.7,77.7s47.7-15.5,47.7-78.3C172.4,138.2,175.9,157.9,148.8,162.3z M126.6,179.4c-8.9,0-12.6-3.9-14.1-6.7
	c-0.8-1.4,0.1-3.1,1.7-3.4l11.3-2.3l1.1-1.6l1.1,1.6l11.3,2.3c1.6,0.3,2.4,2.1,1.7,3.4C139.1,175.5,135.4,179.4,126.6,179.4z"/>
<path class="st5" d="M122.3,171.9h8.6l-1.5,9.3h-5.6L122.3,171.9z"/>
<path class="st8" d="M126.8,122.8c-3.3,0-11.5,37.5-6.7,36.1c5-1.4,3,1.9,6.7,1.9c3.7,0,2.2-3.2,6.7-1.9
	C138.7,160.4,130.1,122.8,126.8,122.8z"/>
<path class="st2" d="M158.3,142.1c0,4.4-3.6,8-8,8c-4.4,0-8-3.6-8-8H158.3z"/>
<path class="st2" d="M111.6,142.1c0,4.4-4.3,8-8,8c-3.7,0-8-3.6-8-8H111.6z"/>
<path class="st5" d="M165.9,130.7l-26.7,1.2l-0.5-5.7h3v1.9c0,0,12-3,16-2.5C161.7,126.1,165.9,130.7,165.9,130.7z"/>
<path class="st5" d="M87.6,129.3l26.7,1.2l0.5-5.7h-3v1.9c0,0-12-3-16-2.5C91.9,124.7,87.6,129.3,87.6,129.3z"/>
<path class="st5" d="M119.2,123.6h-2.6v8.3h2.6V123.6z"/>
<path class="st5" d="M122.3,125.3h-1.4v5.9h1.4V125.3z"/>
<path class="st5" d="M136.9,124.5h-2.6v7.9h2.6V124.5z"/>
<path class="st5" d="M132.9,125.3h-1.4v6.6h1.4V125.3z"/>
<path class="st9" d="M111.4,138.7c0,4.4-3.6,8-8,8c-4.4,0-8-3.6-8-8c0-4.4,3.6-8,8-8C107.8,130.7,111.4,134.3,111.4,138.7z"/>
<path class="st9" d="M158.3,138.7c0,4.4-3.6,8-8,8c-4.4,0-8-3.6-8-8c0-4.4,3.6-8,8-8C154.8,130.7,158.3,134.3,158.3,138.7z"/>
<path class="st10" d="M94.4,74.8c0-16.7,37.2-29.1,47.3-9.1"/>
<path class="st10" d="M68,115c-9.7-17.5,10.6-49.1,29.3-40.1"/>
<path class="st10" d="M98,76.2c3.6-28.8,68-24.7,70.9,17.7"/>
<path class="st10" d="M164.7,106.5c13.8,1.6,25.5,20.7,21.4,32.5"/>
<path class="st10" d="M100.2,83.4c5.9,8.2-7.3,31.6-18.8,31.6"/>
<path class="st10" d="M80.6,109c-18.3,30.7-19.7,56.9-2.8,55.5"/>
<path class="st10" d="M168.8,162.8c7,9.6,8.7,25.9-1.4,35.5"/>
<path class="st10" d="M93.1,170.2c-11.1,8.5-11.1,31.2,0,33.6"/>
<path class="st11" d="M103.4,138.7c0,0,2.1-0.4,2.2,1.6c0.2,3.1-4.1,4-6.2,1.1c-2.1-3,0.1-6.6,2.5-7.3c3.7-1.1,9.5,2.8,5.9,8.8"/>
<path class="st11" d="M150.4,138.7c0,0,2.1-0.4,2.2,1.6c0.2,3.1-4.1,4-6.2,1.1c-2.1-3,0.1-6.6,2.5-7.3c3.7-1.1,9.5,2.8,5.9,8.8"/>
<path class="st12" d="M127.5,119.3c-4.9,0-8.9-5.2-9.7-6.3c-0.1-0.1-0.1-0.3,0-0.5c0.8-1.2,4.3-6.3,9.7-6.3c5.4,0,9,5.1,9.7,6.3
	c0.1,0.2,0.1,0.3,0,0.5C136.4,114.1,132.4,119.3,127.5,119.3z"/>
<path class="st5" d="M127.5,116c1.8,0,3.3-1.5,3.3-3.3s-1.5-3.3-3.3-3.3c-1.8,0-3.3,1.5-3.3,3.3S125.7,116,127.5,116z"/>
<path id="_x3C_rayito004_x3E_" class="st9" d="M161.7,31.8L193.1,0L177,27.3L187,29l-31.4,31.8l16.1-27.3L161.7,31.8z"/>
<path id="_x3C_rayito003_x3E_" class="st9" d="M206,72.6l49.7-9.2l-32.6,14.9l8.1,8.1l-49.7,9.2l32.6-14.9L206,72.6z"/>
<path id="_x3C_rayito002_x3E_" class="st9" d="M49.7,72.6L0,63.5l32.6,14.9l-8.1,8.1l49.7,9.2L41.6,80.7L49.7,72.6z"/>
<path id="_x3C_rayito001_x3E_" class="st9" d="M94,31.8L62.6,0l16.1,27.3l-10,1.7l31.4,31.8L84,33.5L94,31.8z"/>
</svg>
